<svg width="208" height="64" viewBox="0 0 208 64" fill="none" xmlns="http://www.w3.org/2000/svg">
<path d="M68.24 41.528C68.24 41.9333 68.1013 42.2853 67.824 42.584C67.5467 42.8613 67.1947 43 66.768 43H65.904C65.4987 43 65.1467 42.8613 64.848 42.584C64.5707 42.2853 64.432 41.9333 64.432 41.528V31.896C64.432 31.8107 64.3893 31.7573 64.304 31.736C64.24 31.7147 64.1867 31.736 64.144 31.8L61.072 38.136C61.008 38.3067 60.8693 38.456 60.656 38.584C60.4427 38.712 60.24 38.8187 60.048 38.904C59.8773 38.968 59.792 39 59.792 39C59.1307 39 58.6933 38.712 58.48 38.136L55.408 31.8C55.3867 31.736 55.3333 31.7147 55.248 31.736C55.1627 31.7573 55.12 31.8107 55.12 31.896V41.528C55.12 41.9333 54.9707 42.2853 54.672 42.584C54.3947 42.8613 54.0533 43 53.648 43H52.752C52.3467 43 51.9947 42.8613 51.696 42.584C51.4187 42.2853 51.28 41.9333 51.28 41.528V22.84C51.28 22.4133 51.4187 22.0613 51.696 21.784C51.9947 21.5067 52.3467 21.368 52.752 21.368H53.68C54.2773 21.368 54.7147 21.6453 54.992 22.2C55.0987 22.4347 55.312 22.8933 55.632 23.576C55.9733 24.2373 56.368 25.0267 56.816 25.944C57.264 26.8613 57.7227 27.832 58.192 28.856C58.6827 29.8587 59.152 30.8187 59.6 31.736C59.6427 31.8213 59.696 31.864 59.76 31.864C59.8453 31.864 59.9093 31.8213 59.952 31.736L64.528 22.2C64.8053 21.6453 65.2533 21.368 65.872 21.368H66.768C67.1947 21.368 67.5467 21.5067 67.824 21.784C68.1013 22.0613 68.24 22.4133 68.24 22.84V41.528ZM75.6745 23.416C75.6745 24.0773 75.4292 24.6533 74.9385 25.144C74.4692 25.6133 73.9145 25.848 73.2745 25.848C72.6132 25.848 72.0372 25.6133 71.5465 25.144C71.0772 24.6533 70.8425 24.0773 70.8425 23.416C70.8425 22.776 71.0772 22.2213 71.5465 21.752C72.0372 21.2613 72.6132 21.016 73.2745 21.016C73.9145 21.016 74.4692 21.2613 74.9385 21.752C75.4292 22.2213 75.6745 22.776 75.6745 23.416ZM75.1625 41.528C75.1625 41.9333 75.0132 42.2853 74.7145 42.584C74.4372 42.8613 74.0958 43 73.6905 43H72.8265C72.4212 43 72.0692 42.8613 71.7705 42.584C71.4932 42.2853 71.3545 41.9333 71.3545 41.528V28.248C71.3545 27.8427 71.4932 27.5013 71.7705 27.224C72.0692 26.9253 72.4212 26.776 72.8265 26.776H73.6905C74.0958 26.776 74.4372 26.9253 74.7145 27.224C75.0132 27.5013 75.1625 27.8427 75.1625 28.248V41.528ZM89.8328 39.416C89.8328 40.4187 89.4808 41.272 88.7768 41.976C88.0941 42.6587 87.2621 43 86.2808 43H81.8328C80.8514 43 80.0088 42.6587 79.3048 41.976C78.6008 41.272 78.2488 40.4187 78.2488 39.416V30.008C78.2488 29.3467 78.4088 28.7493 78.7288 28.216C79.0701 27.6613 79.5074 27.224 80.0408 26.904C80.5741 26.584 81.1714 26.424 81.8328 26.424H86.2808C86.9421 26.424 87.5394 26.584 88.0728 26.904C88.6061 27.224 89.0328 27.6613 89.3528 28.216C89.6728 28.7493 89.8328 29.3467 89.8328 30.008V31.672C89.8328 32.0773 89.6941 32.4293 89.4168 32.728C89.1394 33.0053 88.7981 33.144 88.3928 33.144H87.4968C87.0914 33.144 86.7501 33.0053 86.4728 32.728C86.1954 32.4293 86.0568 32.0773 86.0568 31.672V30.68C86.0568 30.552 86.0034 30.4453 85.8968 30.36C85.8114 30.2747 85.7154 30.232 85.6088 30.232H82.5048C82.3981 30.232 82.2914 30.2747 82.1848 30.36C82.0994 30.4453 82.0568 30.552 82.0568 30.68V38.808C82.0568 38.9147 82.0994 39.0107 82.1848 39.096C82.2914 39.1813 82.3981 39.224 82.5048 39.224H85.6088C85.7154 39.224 85.8114 39.1813 85.8968 39.096C86.0034 39.0107 86.0568 38.9147 86.0568 38.808V37.816C86.0568 37.4107 86.1954 37.0693 86.4728 36.792C86.7501 36.4933 87.0914 36.344 87.4968 36.344H88.3928C88.7981 36.344 89.1394 36.4933 89.4168 36.792C89.6941 37.0693 89.8328 37.4107 89.8328 37.816V39.416ZM103.892 42.104C103.658 42.7013 103.22 43 102.58 43H101.396C100.97 43 100.596 42.84 100.276 42.52L96.5323 38.392C96.5109 38.3493 96.4576 38.3387 96.3723 38.36C96.3083 38.3813 96.2763 38.4347 96.2763 38.52V41.528C96.2763 41.9333 96.1269 42.2853 95.8283 42.584C95.5509 42.8613 95.2096 43 94.8043 43H93.9083C93.5029 43 93.1509 42.8613 92.8523 42.584C92.5749 42.2853 92.4363 41.9333 92.4363 41.528V22.84C92.4363 22.4133 92.5749 22.0613 92.8523 21.784C93.1509 21.5067 93.5029 21.368 93.9083 21.368H94.8043C95.2096 21.368 95.5509 21.5067 95.8283 21.784C96.1269 22.0613 96.2763 22.4133 96.2763 22.84V30.936C96.2763 31 96.3083 31.0533 96.3723 31.096C96.4576 31.1173 96.5109 31.096 96.5323 31.032L99.9243 27.352C100.202 27.032 100.554 26.872 100.98 26.872H102.164C102.783 26.872 103.231 27.1707 103.508 27.768C103.615 28.024 103.647 28.3013 103.604 28.6C103.562 28.8773 103.444 29.112 103.252 29.304L98.6123 34.424C98.5269 34.5093 98.4843 34.616 98.4843 34.744C98.4843 34.8507 98.5269 34.936 98.6123 35L103.636 40.536C103.828 40.7493 103.946 41.0053 103.988 41.304C104.052 41.5813 104.02 41.848 103.892 42.104ZM117.344 28.28L112.96 45.112C112.725 45.9867 112.245 46.7013 111.52 47.256C110.794 47.832 109.962 48.12 109.024 48.12H108.128C107.722 48.12 107.37 47.9707 107.072 47.672C106.794 47.3947 106.656 47.0533 106.656 46.648V45.752C106.656 45.3467 106.794 45.0053 107.072 44.728C107.37 44.4507 107.722 44.312 108.128 44.312H109.024C109.152 44.312 109.237 44.248 109.28 44.12L109.984 41.368C110.048 41.1973 110.048 41.016 109.984 40.824L106.72 28.28C106.549 27.7893 106.634 27.3733 106.976 27.032C107.253 26.6267 107.626 26.424 108.096 26.424H109.024C109.365 26.424 109.664 26.5307 109.92 26.744C110.176 26.936 110.346 27.2027 110.432 27.544L111.872 33.016C111.893 33.1013 111.946 33.144 112.032 33.144C112.117 33.144 112.17 33.1013 112.192 33.016L113.632 27.544C113.738 27.2027 113.909 26.936 114.144 26.744C114.4 26.5307 114.688 26.424 115.008 26.424H115.936C116.426 26.424 116.81 26.6267 117.088 27.032C117.408 27.3733 117.493 27.7893 117.344 28.28ZM130.176 35.16C130.176 35.5653 130.037 35.9173 129.76 36.216C129.482 36.4933 129.141 36.632 128.736 36.632H121.44C121.034 36.632 120.693 36.4933 120.416 36.216C120.138 35.9173 120 35.5653 120 35.16V34.264C120 33.8587 120.138 33.528 120.416 33.272C120.693 32.9947 121.034 32.856 121.44 32.856H128.736C129.141 32.856 129.482 32.9947 129.76 33.272C130.037 33.528 130.176 33.8587 130.176 34.264V35.16ZM147.436 38.776C147.436 39.544 147.244 40.248 146.86 40.888C146.476 41.528 145.964 42.04 145.324 42.424C144.684 42.808 143.98 43 143.212 43H137.068C136.3 43 135.585 42.808 134.924 42.424C134.284 42.04 133.772 41.528 133.388 40.888C133.004 40.248 132.812 39.544 132.812 38.776V37.816C132.812 37.4107 132.951 37.0693 133.228 36.792C133.527 36.4933 133.879 36.344 134.284 36.344H135.18C135.564 36.344 135.895 36.4933 136.172 36.792C136.471 37.0693 136.62 37.4107 136.62 37.816V38.776C136.62 38.8827 136.663 38.9893 136.748 39.096C136.855 39.1813 136.961 39.224 137.068 39.224H143.212C143.319 39.224 143.415 39.1813 143.5 39.096C143.585 38.9893 143.628 38.8827 143.628 38.776V35.864C143.628 35.6293 143.521 35.48 143.308 35.416L135.628 32.536C134.775 32.2373 134.092 31.7147 133.58 30.968C133.068 30.2213 132.812 29.4 132.812 28.504V25.624C132.812 24.8347 133.004 24.12 133.388 23.48C133.772 22.84 134.284 22.328 134.924 21.944C135.585 21.56 136.3 21.368 137.068 21.368H143.212C143.98 21.368 144.684 21.56 145.324 21.944C145.964 22.328 146.476 22.84 146.86 23.48C147.244 24.12 147.436 24.8347 147.436 25.624V26.488C147.436 26.8933 147.287 27.2347 146.988 27.512C146.711 27.7893 146.369 27.928 145.964 27.928H145.1C144.695 27.928 144.343 27.7893 144.044 27.512C143.767 27.2347 143.628 26.8933 143.628 26.488V25.624C143.628 25.3253 143.489 25.176 143.212 25.176H137.068C136.961 25.176 136.855 25.2187 136.748 25.304C136.663 25.3893 136.62 25.496 136.62 25.624V28.504C136.62 28.76 136.727 28.92 136.94 28.984L144.652 31.864C145.484 32.1627 146.156 32.6853 146.668 33.432C147.18 34.1787 147.436 34.9893 147.436 35.864V38.776ZM161.614 39.416C161.614 40.4187 161.262 41.272 160.558 41.976C159.875 42.6587 159.043 43 158.062 43H153.614C152.633 43 151.79 42.6587 151.086 41.976C150.382 41.272 150.03 40.4187 150.03 39.416V30.008C150.03 29.3467 150.19 28.7493 150.51 28.216C150.851 27.6613 151.289 27.224 151.822 26.904C152.355 26.584 152.953 26.424 153.614 26.424H158.062C158.723 26.424 159.321 26.584 159.854 26.904C160.387 27.224 160.814 27.6613 161.134 28.216C161.454 28.7493 161.614 29.3467 161.614 30.008V39.416ZM157.838 38.808V30.68C157.838 30.552 157.785 30.4453 157.678 30.36C157.593 30.2747 157.497 30.232 157.39 30.232H154.286C154.179 30.232 154.073 30.2747 153.966 30.36C153.881 30.4453 153.838 30.552 153.838 30.68V38.808C153.838 38.9147 153.881 39.0107 153.966 39.096C154.073 39.1813 154.179 39.224 154.286 39.224H157.39C157.497 39.224 157.593 39.1813 157.678 39.096C157.785 39.0107 157.838 38.9147 157.838 38.808ZM175.802 39.416C175.802 40.4187 175.45 41.272 174.746 41.976C174.063 42.6587 173.231 43 172.25 43H167.802C166.82 43 165.978 42.6587 165.274 41.976C164.57 41.272 164.218 40.4187 164.218 39.416V30.008C164.218 29.3467 164.378 28.7493 164.698 28.216C165.039 27.6613 165.476 27.224 166.01 26.904C166.543 26.584 167.14 26.424 167.802 26.424H172.25C172.911 26.424 173.508 26.584 174.042 26.904C174.575 27.224 175.002 27.6613 175.322 28.216C175.642 28.7493 175.802 29.3467 175.802 30.008V31.672C175.802 32.0773 175.663 32.4293 175.386 32.728C175.108 33.0053 174.767 33.144 174.362 33.144H173.466C173.06 33.144 172.719 33.0053 172.442 32.728C172.164 32.4293 172.026 32.0773 172.026 31.672V30.68C172.026 30.552 171.972 30.4453 171.866 30.36C171.78 30.2747 171.684 30.232 171.578 30.232H168.474C168.367 30.232 168.26 30.2747 168.154 30.36C168.068 30.4453 168.026 30.552 168.026 30.68V38.808C168.026 38.9147 168.068 39.0107 168.154 39.096C168.26 39.1813 168.367 39.224 168.474 39.224H171.578C171.684 39.224 171.78 39.1813 171.866 39.096C171.972 39.0107 172.026 38.9147 172.026 38.808V37.816C172.026 37.4107 172.164 37.0693 172.442 36.792C172.719 36.4933 173.06 36.344 173.466 36.344H174.362C174.767 36.344 175.108 36.4933 175.386 36.792C175.663 37.0693 175.802 37.4107 175.802 37.816V39.416ZM183.237 23.416C183.237 24.0773 182.992 24.6533 182.501 25.144C182.032 25.6133 181.477 25.848 180.837 25.848C180.176 25.848 179.6 25.6133 179.109 25.144C178.64 24.6533 178.405 24.0773 178.405 23.416C178.405 22.776 178.64 22.2213 179.109 21.752C179.6 21.2613 180.176 21.016 180.837 21.016C181.477 21.016 182.032 21.2613 182.501 21.752C182.992 22.2213 183.237 22.776 183.237 23.416ZM182.725 41.528C182.725 41.9333 182.576 42.2853 182.277 42.584C182 42.8613 181.658 43 181.253 43H180.389C179.984 43 179.632 42.8613 179.333 42.584C179.056 42.2853 178.917 41.9333 178.917 41.528V28.248C178.917 27.8427 179.056 27.5013 179.333 27.224C179.632 26.9253 179.984 26.776 180.389 26.776H181.253C181.658 26.776 182 26.9253 182.277 27.224C182.576 27.5013 182.725 27.8427 182.725 28.248V41.528ZM197.395 39.416C197.395 40.4187 197.043 41.272 196.339 41.976C195.657 42.6587 194.825 43 193.843 43H189.395C188.414 43 187.571 42.6587 186.867 41.976C186.163 41.272 185.811 40.4187 185.811 39.416V35.928C185.811 35.2667 185.971 34.68 186.291 34.168C186.633 33.6347 187.07 33.208 187.603 32.888C188.137 32.568 188.734 32.408 189.395 32.408H193.171C193.278 32.408 193.374 32.3653 193.459 32.28C193.566 32.1947 193.619 32.088 193.619 31.96V30.68C193.619 30.552 193.566 30.4453 193.459 30.36C193.374 30.2747 193.278 30.232 193.171 30.232H189.395C188.99 30.232 188.638 30.0933 188.339 29.816C188.062 29.5387 187.923 29.1973 187.923 28.792V27.928C187.923 27.5013 188.062 27.1493 188.339 26.872C188.638 26.5733 188.99 26.424 189.395 26.424H193.843C194.505 26.424 195.102 26.584 195.635 26.904C196.169 27.224 196.595 27.6613 196.915 28.216C197.235 28.7493 197.395 29.3467 197.395 30.008V39.416ZM193.619 38.808V36.6C193.619 36.4933 193.566 36.3973 193.459 36.312C193.374 36.2267 193.278 36.184 193.171 36.184H190.067C189.961 36.184 189.854 36.2267 189.747 36.312C189.662 36.3973 189.619 36.4933 189.619 36.6V38.808C189.619 38.9147 189.662 39.0107 189.747 39.096C189.854 39.1813 189.961 39.224 190.067 39.224H193.171C193.278 39.224 193.374 39.1813 193.459 39.096C193.566 39.0107 193.619 38.9147 193.619 38.808ZM205.823 41.528C205.823 41.9333 205.673 42.2853 205.375 42.584C205.097 42.8613 204.756 43 204.351 43H203.551C202.569 43 201.727 42.6587 201.023 41.976C200.319 41.272 199.967 40.4187 199.967 39.416V22.84C199.967 22.4133 200.105 22.0613 200.383 21.784C200.681 21.5067 201.033 21.368 201.439 21.368H202.335C202.74 21.368 203.081 21.5067 203.359 21.784C203.657 22.0613 203.807 22.4133 203.807 22.84V38.808C203.807 39.0853 203.935 39.224 204.191 39.224H204.351C204.756 39.224 205.097 39.3627 205.375 39.64C205.673 39.9173 205.823 40.2693 205.823 40.696V41.528Z" fill="black"/>
<g filter="url(#filter0_i_9_16)">
<path d="M18.3468 24.108C15.3079 17.0352 10.0828 6.39516 10.0828 6.39516C10.0828 6.39516 9.89645 5.21429 10.0828 4.70822C10.2692 4.20215 10.9641 3.37004 11.6362 2.68389C12.7726 1.52366 13.5604 1.09737 14.9293 0.575218C16.3845 0.0201968 17.2751 -0.0959915 18.7817 0.0691361C19.9203 0.193929 21.0186 0.322163 21.6399 0.912606C22.2612 1.50305 22.8204 2.34652 22.9447 3.35867C23.0691 4.37082 22.9447 24.108 22.9447 24.108C22.9447 24.108 23.0613 26.3734 22.3855 27.2289C22.0125 27.7012 21.7021 28.0723 21.205 27.988C20.7078 27.9037 20.0866 27.5662 19.5273 26.8915C18.9681 26.2167 18.8123 25.1915 18.3468 24.108Z" fill="black"/>
<path d="M21.2954 40.0407C18.4647 47.1994 14.6698 58.4293 14.6698 58.4293C14.6698 58.4293 13.9695 59.3982 13.4806 59.6257C12.9916 59.8533 11.9121 59.9536 10.9518 59.9664C9.32786 59.9882 8.4686 59.7352 7.12959 59.1405C5.70628 58.5083 4.99266 57.9628 4.04054 56.7837C3.32099 55.8925 2.63239 55.0273 2.60797 54.1705C2.58356 53.3138 2.78155 52.3213 3.4069 51.5158C4.03224 50.7103 18.0343 36.7993 18.0343 36.7993C18.0343 36.7993 19.5487 35.1105 20.631 34.9801C21.2286 34.9081 21.7103 34.8637 22.0035 35.274C22.2966 35.6842 22.4994 36.3615 22.4204 37.2343C22.3413 38.1072 21.7291 38.9441 21.2954 40.0407Z" fill="black"/>
<path d="M30.241 31.9302C28.6391 32.1657 27.4741 31.7536 27.0372 31.4593C26.6003 31.1649 26.1325 30.6398 26.0178 29.9876C25.8936 29.2809 26.4547 28.3982 26.6003 28.2216C26.7459 28.045 27.769 27.1917 28.4935 26.5144C30.0417 25.0669 31.9157 23.0412 32.2798 22.688C32.6438 22.3348 32.7635 22.2978 33.1535 22.1582C33.8556 21.907 34.3799 21.9918 35.1195 22.1582C36.0621 22.3703 36.6486 22.8646 37.1583 23.3356C37.668 23.8065 40.6533 27.1619 40.799 27.5152C40.9446 27.8684 41.2314 28.9811 40.6533 29.6933C40.2033 30.2477 40.0708 30.3997 38.9058 30.6351C37.7408 30.8706 36.1519 31.0187 34.3914 31.2827C32.7683 31.5261 31.8429 31.6948 30.241 31.9302Z" fill="black"/>
<path d="M15.4737 28.3094C16.9736 29.0183 17.6872 30.0808 17.8644 30.6103C18.0416 31.1397 18.0955 31.9036 17.7702 32.5816C17.4177 33.3163 16.3747 33.8182 16.138 33.8993C15.9013 33.9803 14.4887 34.1865 13.4412 34.4011C11.2025 34.8596 8.31585 35.6712 7.78114 35.7911C7.24642 35.9109 7.1218 35.8762 6.7034 35.7807C5.95029 35.6088 5.56406 35.2251 5.04946 34.6398C4.39365 33.8938 4.21994 33.0901 4.09571 32.3527C3.97149 31.6154 3.63008 26.737 3.736 26.3214C3.84192 25.9057 4.32026 24.6961 5.26719 24.3638C6.00432 24.1052 6.21412 24.0396 7.34651 24.495C8.47891 24.9503 9.9114 25.7337 11.5632 26.5078C13.0861 27.2215 13.9737 27.6005 15.4737 28.3094Z" fill="black"/>
<path d="M33.7382 47.6772C33.2932 48.6325 32.3307 48.6802 31.8165 48.5429C31.3024 48.4057 30.5219 48.0258 29.7572 47.352C28.9286 46.6219 28.2079 45.3996 28.0783 45.1406C27.9488 44.8816 27.4631 43.4917 27.0391 42.4266C26.1329 40.15 24.7362 37.091 24.5091 36.5414C24.2819 35.9919 24.2939 35.8989 24.3121 35.5751C24.345 34.9922 24.6679 34.8591 25.1748 34.7233C25.8207 34.5502 26.6195 34.8445 27.359 35.146C28.0985 35.4476 33.0839 37.8764 33.5347 38.2051C33.9855 38.5339 35.3301 39.6439 35.8566 40.6844C36.2664 41.4944 36.3748 41.7205 36.1215 42.4864C35.8683 43.2524 35.3332 44.105 34.85 45.1607C34.4044 46.1339 34.1831 46.722 33.7382 47.6772Z" fill="black"/>
</g>
<defs>
<filter id="filter0_i_9_16" x="2.60596" y="0" width="38.394" height="64.9677" filterUnits="userSpaceOnUse" color-interpolation-filters="sRGB">
<feFlood flood-opacity="0" result="BackgroundImageFix"/>
<feBlend mode="normal" in="SourceGraphic" in2="BackgroundImageFix" result="shape"/>
<feColorMatrix in="SourceAlpha" type="matrix" values="0 0 0 0 0 0 0 0 0 0 0 0 0 0 0 0 0 0 127 0" result="hardAlpha"/>
<feOffset dy="5"/>
<feGaussianBlur stdDeviation="2.5"/>
<feComposite in2="hardAlpha" operator="arithmetic" k2="-1" k3="1"/>
<feColorMatrix type="matrix" values="0 0 0 0 1 0 0 0 0 1 0 0 0 0 1 0 0 0 0.1 0"/>
<feBlend mode="normal" in2="shape" result="effect1_innerShadow_9_16"/>
</filter>
</defs>
</svg>
