<svg width="310" height="55" viewBox="0 0 310 55" fill="none" xmlns="http://www.w3.org/2000/svg">
<path d="M34.48 41.056C34.48 41.8667 34.2027 42.5707 33.648 43.168C33.0933 43.7227 32.3893 44 31.536 44H29.808C28.9973 44 28.2933 43.7227 27.696 43.168C27.1413 42.5707 26.864 41.8667 26.864 41.056V21.792C26.864 21.6213 26.7787 21.5147 26.608 21.472C26.48 21.4293 26.3733 21.472 26.288 21.6L20.144 34.272C20.016 34.6133 19.7387 34.912 19.312 35.168C18.8853 35.424 18.48 35.6373 18.096 35.808C17.7547 35.936 17.584 36 17.584 36C16.2613 36 15.3867 35.424 14.96 34.272L8.816 21.6C8.77333 21.472 8.66667 21.4293 8.496 21.472C8.32533 21.5147 8.24 21.6213 8.24 21.792V41.056C8.24 41.8667 7.94133 42.5707 7.344 43.168C6.78933 43.7227 6.10667 44 5.296 44H3.504C2.69333 44 1.98933 43.7227 1.392 43.168C0.837334 42.5707 0.56 41.8667 0.56 41.056V3.68C0.56 2.82666 0.837334 2.12266 1.392 1.568C1.98933 1.01333 2.69333 0.735996 3.504 0.735996H5.36C6.55467 0.735996 7.42933 1.29066 7.984 2.4C8.19733 2.86933 8.624 3.78666 9.264 5.152C9.94667 6.47466 10.736 8.05333 11.632 9.888C12.528 11.7227 13.4453 13.664 14.384 15.712C15.3653 17.7173 16.304 19.6373 17.2 21.472C17.2853 21.6427 17.392 21.728 17.52 21.728C17.6907 21.728 17.8187 21.6427 17.904 21.472L27.056 2.4C27.6107 1.29066 28.5067 0.735996 29.744 0.735996H31.536C32.3893 0.735996 33.0933 1.01333 33.648 1.568C34.2027 2.12266 34.48 2.82666 34.48 3.68V41.056ZM49.349 4.832C49.349 6.15466 48.8583 7.30666 47.877 8.288C46.9383 9.22667 45.829 9.696 44.549 9.696C43.2263 9.696 42.0743 9.22667 41.093 8.288C40.1543 7.30666 39.685 6.15466 39.685 4.832C39.685 3.552 40.1543 2.44267 41.093 1.504C42.0743 0.522664 43.2263 0.0319977 44.549 0.0319977C45.829 0.0319977 46.9383 0.522664 47.877 1.504C48.8583 2.44267 49.349 3.552 49.349 4.832ZM48.325 41.056C48.325 41.8667 48.0263 42.5707 47.429 43.168C46.8743 43.7227 46.1917 44 45.381 44H43.653C42.8423 44 42.1383 43.7227 41.541 43.168C40.9863 42.5707 40.709 41.8667 40.709 41.056V14.496C40.709 13.6853 40.9863 13.0027 41.541 12.448C42.1383 11.8507 42.8423 11.552 43.653 11.552H45.381C46.1917 11.552 46.8743 11.8507 47.429 12.448C48.0263 13.0027 48.325 13.6853 48.325 14.496V41.056ZM77.6655 36.832C77.6655 38.8373 76.9615 40.544 75.5535 41.952C74.1882 43.3173 72.5242 44 70.5615 44H61.6655C59.7028 44 58.0175 43.3173 56.6095 41.952C55.2015 40.544 54.4975 38.8373 54.4975 36.832V18.016C54.4975 16.6933 54.8175 15.4987 55.4575 14.432C56.1402 13.3227 57.0148 12.448 58.0815 11.808C59.1482 11.168 60.3428 10.848 61.6655 10.848H70.5615C71.8842 10.848 73.0788 11.168 74.1455 11.808C75.2122 12.448 76.0655 13.3227 76.7055 14.432C77.3455 15.4987 77.6655 16.6933 77.6655 18.016V21.344C77.6655 22.1547 77.3882 22.8587 76.8335 23.456C76.2788 24.0107 75.5962 24.288 74.7855 24.288H72.9935C72.1828 24.288 71.5002 24.0107 70.9455 23.456C70.3908 22.8587 70.1135 22.1547 70.1135 21.344V19.36C70.1135 19.104 70.0068 18.8907 69.7935 18.72C69.6228 18.5493 69.4308 18.464 69.2175 18.464H63.0095C62.7962 18.464 62.5828 18.5493 62.3695 18.72C62.1988 18.8907 62.1135 19.104 62.1135 19.36V35.616C62.1135 35.8293 62.1988 36.0213 62.3695 36.192C62.5828 36.3627 62.7962 36.448 63.0095 36.448H69.2175C69.4308 36.448 69.6228 36.3627 69.7935 36.192C70.0068 36.0213 70.1135 35.8293 70.1135 35.616V33.632C70.1135 32.8213 70.3908 32.1387 70.9455 31.584C71.5002 30.9867 72.1828 30.688 72.9935 30.688H74.7855C75.5962 30.688 76.2788 30.9867 76.8335 31.584C77.3882 32.1387 77.6655 32.8213 77.6655 33.632V36.832ZM105.785 42.208C105.315 43.4027 104.441 44 103.161 44H100.793C99.9392 44 99.1925 43.68 98.5525 43.04L91.0645 34.784C91.0218 34.6987 90.9152 34.6773 90.7445 34.72C90.6165 34.7627 90.5525 34.8693 90.5525 35.04V41.056C90.5525 41.8667 90.2538 42.5707 89.6565 43.168C89.1018 43.7227 88.4192 44 87.6085 44H85.8165C85.0058 44 84.3018 43.7227 83.7045 43.168C83.1498 42.5707 82.8725 41.8667 82.8725 41.056V3.68C82.8725 2.82666 83.1498 2.12266 83.7045 1.568C84.3018 1.01333 85.0058 0.735996 85.8165 0.735996H87.6085C88.4192 0.735996 89.1018 1.01333 89.6565 1.568C90.2538 2.12266 90.5525 2.82666 90.5525 3.68V19.872C90.5525 20 90.6165 20.1067 90.7445 20.192C90.9152 20.2347 91.0218 20.192 91.0645 20.064L97.8485 12.704C98.4032 12.064 99.1072 11.744 99.9605 11.744H102.329C103.566 11.744 104.462 12.3413 105.017 13.536C105.23 14.048 105.294 14.6027 105.209 15.2C105.123 15.7547 104.889 16.224 104.505 16.608L95.2245 26.848C95.0538 27.0187 94.9685 27.232 94.9685 27.488C94.9685 27.7013 95.0538 27.872 95.2245 28L105.273 39.072C105.657 39.4987 105.891 40.0107 105.977 40.608C106.105 41.1627 106.041 41.696 105.785 42.208ZM132.688 14.56L123.92 48.224C123.45 49.9733 122.49 51.4027 121.04 52.512C119.589 53.664 117.925 54.24 116.048 54.24H114.256C113.445 54.24 112.741 53.9413 112.144 53.344C111.589 52.7893 111.312 52.1067 111.312 51.296V49.504C111.312 48.6933 111.589 48.0107 112.144 47.456C112.741 46.9013 113.445 46.624 114.256 46.624H116.048C116.304 46.624 116.474 46.496 116.56 46.24L117.968 40.736C118.096 40.3947 118.096 40.032 117.968 39.648L111.44 14.56C111.098 13.5787 111.269 12.7467 111.952 12.064C112.506 11.2533 113.253 10.848 114.192 10.848H116.048C116.73 10.848 117.328 11.0613 117.84 11.488C118.352 11.872 118.693 12.4053 118.864 13.088L121.744 24.032C121.786 24.2027 121.893 24.288 122.064 24.288C122.234 24.288 122.341 24.2027 122.384 24.032L125.264 13.088C125.477 12.4053 125.818 11.872 126.288 11.488C126.8 11.0613 127.376 10.848 128.016 10.848H129.872C130.853 10.848 131.621 11.2533 132.176 12.064C132.816 12.7467 132.986 13.5787 132.688 14.56ZM158.351 28.32C158.351 29.1307 158.074 29.8347 157.519 30.432C156.964 30.9867 156.282 31.264 155.471 31.264H140.879C140.068 31.264 139.386 30.9867 138.831 30.432C138.276 29.8347 137.999 29.1307 137.999 28.32V26.528C137.999 25.7173 138.276 25.056 138.831 24.544C139.386 23.9893 140.068 23.712 140.879 23.712H155.471C156.282 23.712 156.964 23.9893 157.519 24.544C158.074 25.056 158.351 25.7173 158.351 26.528V28.32ZM192.872 35.552C192.872 37.088 192.488 38.496 191.72 39.776C190.952 41.056 189.928 42.08 188.648 42.848C187.368 43.616 185.96 44 184.424 44H172.136C170.6 44 169.171 43.616 167.848 42.848C166.568 42.08 165.544 41.056 164.776 39.776C164.008 38.496 163.624 37.088 163.624 35.552V33.632C163.624 32.8213 163.901 32.1387 164.456 31.584C165.053 30.9867 165.757 30.688 166.568 30.688H168.36C169.128 30.688 169.789 30.9867 170.344 31.584C170.941 32.1387 171.24 32.8213 171.24 33.632V35.552C171.24 35.7653 171.325 35.9787 171.496 36.192C171.709 36.3627 171.923 36.448 172.136 36.448H184.424C184.637 36.448 184.829 36.3627 185 36.192C185.171 35.9787 185.256 35.7653 185.256 35.552V29.728C185.256 29.2587 185.043 28.96 184.616 28.832L169.256 23.072C167.549 22.4747 166.184 21.4293 165.16 19.936C164.136 18.4427 163.624 16.8 163.624 15.008V9.248C163.624 7.66933 164.008 6.24 164.776 4.96C165.544 3.68 166.568 2.656 167.848 1.888C169.171 1.12 170.6 0.735996 172.136 0.735996H184.424C185.96 0.735996 187.368 1.12 188.648 1.888C189.928 2.656 190.952 3.68 191.72 4.96C192.488 6.24 192.872 7.66933 192.872 9.248V10.976C192.872 11.7867 192.573 12.4693 191.976 13.024C191.421 13.5787 190.739 13.856 189.928 13.856H188.2C187.389 13.856 186.685 13.5787 186.088 13.024C185.533 12.4693 185.256 11.7867 185.256 10.976V9.248C185.256 8.65066 184.979 8.352 184.424 8.352H172.136C171.923 8.352 171.709 8.43733 171.496 8.608C171.325 8.77866 171.24 8.992 171.24 9.248V15.008C171.24 15.52 171.453 15.84 171.88 15.968L187.304 21.728C188.968 22.3253 190.312 23.3707 191.336 24.864C192.36 26.3573 192.872 27.9787 192.872 29.728V35.552ZM221.228 36.832C221.228 38.8373 220.524 40.544 219.116 41.952C217.751 43.3173 216.087 44 214.124 44H205.228C203.265 44 201.58 43.3173 200.172 41.952C198.764 40.544 198.06 38.8373 198.06 36.832V18.016C198.06 16.6933 198.38 15.4987 199.02 14.432C199.703 13.3227 200.577 12.448 201.644 11.808C202.711 11.168 203.905 10.848 205.228 10.848H214.124C215.447 10.848 216.641 11.168 217.708 11.808C218.775 12.448 219.628 13.3227 220.268 14.432C220.908 15.4987 221.228 16.6933 221.228 18.016V36.832ZM213.676 35.616V19.36C213.676 19.104 213.569 18.8907 213.356 18.72C213.185 18.5493 212.993 18.464 212.78 18.464H206.572C206.359 18.464 206.145 18.5493 205.932 18.72C205.761 18.8907 205.676 19.104 205.676 19.36V35.616C205.676 35.8293 205.761 36.0213 205.932 36.192C206.145 36.3627 206.359 36.448 206.572 36.448H212.78C212.993 36.448 213.185 36.3627 213.356 36.192C213.569 36.0213 213.676 35.8293 213.676 35.616ZM249.603 36.832C249.603 38.8373 248.899 40.544 247.491 41.952C246.126 43.3173 244.462 44 242.499 44H233.603C231.64 44 229.955 43.3173 228.547 41.952C227.139 40.544 226.435 38.8373 226.435 36.832V18.016C226.435 16.6933 226.755 15.4987 227.395 14.432C228.078 13.3227 228.952 12.448 230.019 11.808C231.086 11.168 232.28 10.848 233.603 10.848H242.499C243.822 10.848 245.016 11.168 246.083 11.808C247.15 12.448 248.003 13.3227 248.643 14.432C249.283 15.4987 249.603 16.6933 249.603 18.016V21.344C249.603 22.1547 249.326 22.8587 248.771 23.456C248.216 24.0107 247.534 24.288 246.723 24.288H244.931C244.12 24.288 243.438 24.0107 242.883 23.456C242.328 22.8587 242.051 22.1547 242.051 21.344V19.36C242.051 19.104 241.944 18.8907 241.731 18.72C241.56 18.5493 241.368 18.464 241.155 18.464H234.947C234.734 18.464 234.52 18.5493 234.307 18.72C234.136 18.8907 234.051 19.104 234.051 19.36V35.616C234.051 35.8293 234.136 36.0213 234.307 36.192C234.52 36.3627 234.734 36.448 234.947 36.448H241.155C241.368 36.448 241.56 36.3627 241.731 36.192C241.944 36.0213 242.051 35.8293 242.051 35.616V33.632C242.051 32.8213 242.328 32.1387 242.883 31.584C243.438 30.9867 244.12 30.688 244.931 30.688H246.723C247.534 30.688 248.216 30.9867 248.771 31.584C249.326 32.1387 249.603 32.8213 249.603 33.632V36.832ZM264.474 4.832C264.474 6.15466 263.983 7.30666 263.002 8.288C262.063 9.22667 260.954 9.696 259.674 9.696C258.351 9.696 257.199 9.22667 256.218 8.288C255.279 7.30666 254.81 6.15466 254.81 4.832C254.81 3.552 255.279 2.44267 256.218 1.504C257.199 0.522664 258.351 0.0319977 259.674 0.0319977C260.954 0.0319977 262.063 0.522664 263.002 1.504C263.983 2.44267 264.474 3.552 264.474 4.832ZM263.45 41.056C263.45 41.8667 263.151 42.5707 262.554 43.168C261.999 43.7227 261.317 44 260.506 44H258.778C257.967 44 257.263 43.7227 256.666 43.168C256.111 42.5707 255.834 41.8667 255.834 41.056V14.496C255.834 13.6853 256.111 13.0027 256.666 12.448C257.263 11.8507 257.967 11.552 258.778 11.552H260.506C261.317 11.552 261.999 11.8507 262.554 12.448C263.151 13.0027 263.45 13.6853 263.45 14.496V41.056ZM292.791 36.832C292.791 38.8373 292.087 40.544 290.679 41.952C289.313 43.3173 287.649 44 285.687 44H276.791C274.828 44 273.143 43.3173 271.735 41.952C270.327 40.544 269.623 38.8373 269.623 36.832V29.856C269.623 28.5333 269.943 27.36 270.583 26.336C271.265 25.2693 272.14 24.416 273.207 23.776C274.273 23.136 275.468 22.816 276.791 22.816H284.343C284.556 22.816 284.748 22.7307 284.919 22.56C285.132 22.3893 285.239 22.176 285.239 21.92V19.36C285.239 19.104 285.132 18.8907 284.919 18.72C284.748 18.5493 284.556 18.464 284.343 18.464H276.791C275.98 18.464 275.276 18.1867 274.679 17.632C274.124 17.0773 273.847 16.3947 273.847 15.584V13.856C273.847 13.0027 274.124 12.2987 274.679 11.744C275.276 11.1467 275.98 10.848 276.791 10.848H285.687C287.009 10.848 288.204 11.168 289.271 11.808C290.337 12.448 291.191 13.3227 291.831 14.432C292.471 15.4987 292.791 16.6933 292.791 18.016V36.832ZM285.239 35.616V31.2C285.239 30.9867 285.132 30.7947 284.919 30.624C284.748 30.4533 284.556 30.368 284.343 30.368H278.135C277.921 30.368 277.708 30.4533 277.495 30.624C277.324 30.7947 277.239 30.9867 277.239 31.2V35.616C277.239 35.8293 277.324 36.0213 277.495 36.192C277.708 36.3627 277.921 36.448 278.135 36.448H284.343C284.556 36.448 284.748 36.3627 284.919 36.192C285.132 36.0213 285.239 35.8293 285.239 35.616ZM309.646 41.056C309.646 41.8667 309.347 42.5707 308.75 43.168C308.195 43.7227 307.512 44 306.702 44H305.102C303.139 44 301.454 43.3173 300.046 41.952C298.638 40.544 297.934 38.8373 297.934 36.832V3.68C297.934 2.82666 298.211 2.12266 298.766 1.568C299.363 1.01333 300.067 0.735996 300.878 0.735996H302.67C303.48 0.735996 304.163 1.01333 304.718 1.568C305.315 2.12266 305.614 2.82666 305.614 3.68V35.616C305.614 36.1707 305.87 36.448 306.382 36.448H306.702C307.512 36.448 308.195 36.7253 308.75 37.28C309.347 37.8347 309.646 38.5387 309.646 39.392V41.056Z" fill="white"/>
</svg>
